<?xml version="1.0" encoding="utf-8"?>
<!-- Generator: Adobe Illustrator 18.1.0, SVG Export Plug-In . SVG Version: 6.00 Build 0)  -->
<!DOCTYPE svg PUBLIC "-//W3C//DTD SVG 1.1//EN" "http://www.w3.org/Graphics/SVG/1.1/DTD/svg11.dtd">
<svg version="1.1" id="Layer_1" xmlns="http://www.w3.org/2000/svg" xmlns:xlink="http://www.w3.org/1999/xlink" x="0px" y="0px"
	 viewBox="0 0 150 150" style="enable-background:new 0 0 150 150;" xml:space="preserve">
<g>
	<path d="M81.4,39.8L20,101.2V131h29.2l61.4-61.7L81.4,39.8z M46.6,127H38v-11H24v-12.2l9.8-8.6l20.8,21.7L46.6,127z M86.2,54.5
		L45.2,95.6c-0.7,0.7-1.6,1-2.5,1c-1.9,0-3.4-1.4-3.4-3.4c0-0.9,0.4-1.8,1-2.5l41.1-41.1c0.7-0.7,1.5-1,2.5-1c1.9,0,3.4,1.4,3.4,3.4
		C87.3,53,86.9,53.8,86.2,54.5z"/>
	<path d="M88.9,32.4L118,61.6l11.4-11.4c1.4-1.4,2.3-3.5,2.3-5.6c0-2.1-0.9-4.2-2.3-5.7l-17.8-17.7c-3-3-8.5-3-11.3,0L88.9,32.4z"/>
</g>
</svg>
