<?xml version="1.0" encoding="utf-8"?>
<!-- Generator: Adobe Illustrator 18.1.0, SVG Export Plug-In . SVG Version: 6.00 Build 0)  -->
<!DOCTYPE svg PUBLIC "-//W3C//DTD SVG 1.1//EN" "http://www.w3.org/Graphics/SVG/1.1/DTD/svg11.dtd">
<svg version="1.1" id="Layer_1" xmlns="http://www.w3.org/2000/svg" xmlns:xlink="http://www.w3.org/1999/xlink" x="0px" y="0px"
	 viewBox="0 0 150 150" style="enable-background:new 0 0 150 150;" xml:space="preserve">
<path d="M125.2,45.3c0,1.3-1,2.3-2.3,2.3h-6.8v67.6c0,7.8-5.1,14.5-11.4,14.5H45.3c-6.3,0-11.4-6.4-11.4-14.3V47.6h-6.8
	c-1.3,0-2.3-1-2.3-2.3v-4.6c0-1.3,1-2.3,2.3-2.3h22l5-11.9c1.4-3.5,5.7-6.3,9.5-6.3h22.8c3.8,0,8.1,2.9,9.5,6.3l5,11.9h22
	c1.3,0,2.3,1,2.3,2.3V45.3z M106.9,47.6H43.1v67.6c0,3.4,1.9,5.4,2.3,5.4h59.3c0.4,0,2.3-2,2.3-5.4V47.6z M61.3,104.7
	c0,1.3-1,2.3-2.3,2.3h-4.6c-1.3,0-2.3-1-2.3-2.3V63.6c0-1.3,1-2.3,2.3-2.3H59c1.3,0,2.3,1,2.3,2.3V104.7z M91,38.5l-3.4-8.3
	c-0.2-0.3-0.9-0.7-1.2-0.8H63.7c-0.4,0.1-1,0.5-1.2,0.8L59,38.5H91z M79.6,104.7c0,1.3-1,2.3-2.3,2.3h-4.6c-1.3,0-2.3-1-2.3-2.3
	V63.6c0-1.3,1-2.3,2.3-2.3h4.6c1.3,0,2.3,1,2.3,2.3V104.7z M97.8,104.7c0,1.3-1,2.3-2.3,2.3H91c-1.3,0-2.3-1-2.3-2.3V63.6
	c0-1.3,1-2.3,2.3-2.3h4.6c1.3,0,2.3,1,2.3,2.3V104.7z"/>
</svg>
